<svg id="Laag_1" data-name="Laag 1" xmlns="http://www.w3.org/2000/svg" xmlns:xlink="http://www.w3.org/1999/xlink" viewBox="0 0 1126.81 227.47"><defs><style>.cls-1{fill:#706d6d;}.cls-2{fill:#205919;}</style><symbol id="machinova_green" data-name="machinova green" viewBox="0 0 1109.54 135.29"><path class="cls-2" d="M130.07,132.85H105.3v-87L64.22,115.08,24.78,45.15v87.7H0V2.45H28.52L64.71,67.16,102.53,2.45h27.54Z"/><path class="cls-2" d="M286.06,132.85H258.35l-12.06-26.08H183.05l-12.23,26.08H143.11L204.73,2.45h19.72ZM236.35,85.74,214.67,38.79l-22,46.95Z"/><path class="cls-2" d="M407.66,109.37A72.37,72.37,0,0,1,384,128.28a67.46,67.46,0,0,1-30.73,7,70.67,70.67,0,0,1-49.34-19.72,67.39,67.39,0,0,1-14.83-21.44,64.84,64.84,0,0,1-5.43-26.48,64.85,64.85,0,0,1,5.43-26.49A67.84,67.84,0,0,1,326,5.22,71,71,0,0,1,353.22,0,67.46,67.46,0,0,1,384,7a71,71,0,0,1,23.22,18.26L389.73,43.2a45.84,45.84,0,0,0-15.56-13.94A44,44,0,0,0,336,27.47a45.59,45.59,0,0,0-14.1,9.45,44.79,44.79,0,0,0-9.54,13.85,41.16,41.16,0,0,0-3.5,16.88,40.7,40.7,0,0,0,3.5,16.7,44.72,44.72,0,0,0,9.54,13.86,45.59,45.59,0,0,0,14.1,9.45,42.56,42.56,0,0,0,17.19,3.51,41.33,41.33,0,0,0,21.35-5.46,48.42,48.42,0,0,0,15.49-14.43Z"/><path class="cls-2" d="M522.74,132.85H497.48V75.14H446.13v57.71H420.87V2.61h25.26V54.28h51.35V2.61h25.26Z"/><path class="cls-2" d="M572.46,132.85H547.19V2.61h25.27Z"/><path class="cls-2" d="M705.3,132.85H680.52L621.68,41.4v91.45H596.9V2.45h28.37l55.25,85.08V2.45H705.3Z"/><path class="cls-2" d="M863.08,67.65a64.89,64.89,0,0,1-5.45,26.4,67.53,67.53,0,0,1-14.9,21.52,71.22,71.22,0,0,1-22,14.42,70.11,70.11,0,0,1-53.48,0,70.89,70.89,0,0,1-22.06-14.42,67.58,67.58,0,0,1-14.9-21.44,64.53,64.53,0,0,1-5.45-26.48,65.12,65.12,0,0,1,5.45-26.57,67.37,67.37,0,0,1,14.9-21.52A70.23,70.23,0,0,1,794.05,0a68.92,68.92,0,0,1,63.58,41.16A64.7,64.7,0,0,1,863.08,67.65Zm-25.26,0a42.11,42.11,0,0,0-3.43-16.88A44.54,44.54,0,0,0,825,36.92a45.11,45.11,0,0,0-14-9.45,41.77,41.77,0,0,0-17-3.51,42.23,42.23,0,0,0-17.15,3.51,45.07,45.07,0,0,0-14,9.45,44.54,44.54,0,0,0-9.39,13.85,43,43,0,0,0,0,33.66,44,44,0,0,0,9.39,13.94,45.07,45.07,0,0,0,14,9.45,42.23,42.23,0,0,0,17.15,3.51,41.77,41.77,0,0,0,17-3.51,45.11,45.11,0,0,0,14-9.45,44,44,0,0,0,9.39-13.94A42.19,42.19,0,0,0,837.82,67.65Z"/><path class="cls-2" d="M987.78,2.45l-49.39,130.4H915.24L864.71,2.45h28l33.9,91.6,33.42-91.6Z"/><path class="cls-2" d="M1109.54,132.85h-27.71l-12.06-26.08h-63.25L994.3,132.85H966.59L1028.2,2.45h19.72Zm-49.72-47.11-21.68-46.95-22,46.95Z"/></symbol><symbol id="machinery" data-name="machinery" viewBox="0 0 1119.89 59.94"><path class="cls-1" d="M0,58.52V1.43H8.1V25.5H35.26V1.43h8.1V58.52h-8.1v-27H8.1v27Z"/><path class="cls-1" d="M81.39,59.94q-12.15,0-19.42-8.15T54.7,30Q54.7,16.32,62,8.16T81.39,0q12.15,0,19.42,8.16T108.08,30q0,13.67-7.27,21.82T81.39,59.94Zm0-6q8.52,0,13.31-6.35T99.48,29.9q0-11.23-4.78-17.54T81.39,6.06q-8.52,0-13.31,6.3T63.3,29.9q0,11.3,4.78,17.64T81.39,53.89Z"/><path class="cls-1" d="M119.43,58.52V1.43h17.28q8.21,0,12.59,3.62t4.38,10.53a16.26,16.26,0,0,1-3,9.69,19.19,19.19,0,0,1-8.5,6.52l19,26.73h-9.95L135,34.37h-7.54V58.52Zm8-30.21h2.63q7.5,0,11.4-3t3.91-8.91q0-8.88-12.84-8.88h-5.1Z"/><path class="cls-1" d="M183,58.52v-51H162.71V1.43h48.6V7.48H191.06v51Z"/><path class="cls-1" d="M219.29,58.52V1.43h8.11V58.52Z"/><path class="cls-1" d="M285,55.59a39.71,39.71,0,0,1-18.44,4.35q-13.31,0-20.56-7.79T238.74,30q0-14.31,7.38-22.16T267,0a77.46,77.46,0,0,1,17.94,2.51v7.6q-11.73-4-18.09-4-9.3,0-14.39,6.28t-5.09,17.75q0,11,5.44,17.24t14.89,6.29q8.06,0,17.32-5Z"/><path class="cls-1" d="M296.29,1.43h8.1v36q0,8.59,3.18,12.51c2.11,2.61,5.49,3.92,10.11,3.92s7.72-1.23,9.61-3.69,2.83-6.61,2.83-12.47V1.43h7.13V37.61q0,7.49-1.46,11.49a16,16,0,0,1-5.29,7.06q-4.78,3.78-13.15,3.78-10.85,0-16-5.47t-5.11-17.09Z"/><path class="cls-1" d="M351.49,58.52V1.43h8.1v51h25.69v6.06Z"/><path class="cls-1" d="M407.19,58.52v-51H386.94V1.43h48.6V7.48H415.29v51Z"/><path class="cls-1" d="M443.1,1.43h8.1v36q0,8.59,3.18,12.51t10.11,3.92q6.78,0,9.61-3.69t2.83-12.47V1.43h7.14V37.61q0,7.49-1.47,11.49a16.1,16.1,0,0,1-5.28,7.06q-4.79,3.78-13.16,3.78-10.83,0-16-5.47T443.1,37.38Z"/><path class="cls-1" d="M498.3,58.52V1.43h17.28q8.22,0,12.6,3.62t4.38,10.53a16.26,16.26,0,0,1-3,9.69A19.22,19.22,0,0,1,521,31.79l19.06,26.73h-10L513.86,34.37h-7.53V58.52Zm8-30.21H509q7.5,0,11.41-3t3.9-8.91q0-8.88-12.83-8.88h-5.1Z"/><path class="cls-1" d="M541.54,58.52,564.19,1.43h8l22.3,57.09h-8.74l-6.21-15.78H555.35l-6.3,15.78Zm16.13-21.84H577.2L567.45,12Z"/><path class="cls-1" d="M602.76,58.52V1.43h8.1v51h25.69v6.06Z"/><path class="cls-1" d="M669.88,58.52V1.43h11.18L696.9,45.6,713.17,1.43h10.06V58.52h-7.6V12.14L699.91,54.7h-7.83L676.82,12V58.52Z"/><path class="cls-1" d="M731.21,58.52,753.86,1.43h8l22.3,57.09h-8.74l-6.21-15.78H745l-6.3,15.78Zm16.13-21.84h19.53L757.12,12Z"/><path class="cls-1" d="M835.32,55.59a39.64,39.64,0,0,1-18.43,4.35q-13.32,0-20.56-7.79T789.07,30q0-14.31,7.39-22.16T817.31,0a77.46,77.46,0,0,1,17.94,2.51v7.6q-11.73-4-18.09-4-9.3,0-14.39,6.28t-5.09,17.75q0,11,5.44,17.24T818,53.62q8.06,0,17.31-5Z"/><path class="cls-1" d="M847.09,58.52V1.43h8.1V25.5h27.16V1.43h8.1V58.52h-8.1v-27H855.19v27Z"/><path class="cls-1" d="M905.1,58.52V1.43h8.11V58.52Z"/><path class="cls-1" d="M927.9,58.52V1.43h8l28.74,44.08V1.43h6.94V58.52h-7.91L934.85,14.44V58.52Z"/><path class="cls-1" d="M986.27,58.52V1.43h31.9V7.48h-23.8V25.81h19.94v6H994.37V52.46h25.46v6.06Z"/><path class="cls-1" d="M1029.08,58.52V1.43h17.28q8.22,0,12.6,3.62t4.38,10.53a16.26,16.26,0,0,1-3,9.69,19.22,19.22,0,0,1-8.51,6.52l19.06,26.73h-9.95l-16.26-24.15h-7.54V58.52Zm8-30.21h2.62q7.5,0,11.41-3t3.9-8.91q0-8.88-12.83-8.88h-5.1Z"/><path class="cls-1" d="M1091.38,58.52V34.68L1072.32,1.43h9.25l14.84,25.8,15.95-25.8h7.53l-20.41,33.09v24Z"/></symbol></defs><title>machinova versie 2</title><use width="1109.54" height="135.29" transform="translate(0 0) scale(1.02)" xlink:href="#machinova_green"/><text x="-4.19" y="-204.38"></text><use width="1119.89" height="59.94" transform="translate(136.81 165.62) scale(0.76)" xlink:href="#machinery"/></svg>